<svg width="24" height="21" fill="none" xmlns="http://www.w3.org/2000/svg"><path d="M23.543.937c-.914-.342-5.2-.17-5.6.23-.2.2-1.6 2.628-3.086 5.428-1.486 2.771-2.771 5.028-2.857 5.028-.086 0-1.371-2.257-2.857-5.028-1.486-2.8-2.886-5.229-3.086-5.429C5.8.88 4.914.766 3.286.766.543.766 0 .91 0 1.652c0 .685 9.314 18 9.914 18.486.629.457 3.543.457 4.172 0 .6-.486 9.914-17.8 9.914-18.486 0-.286-.2-.629-.457-.715zm-5.657 9.83c-2.429 4.485-4.629 8.256-4.857 8.428-.315.2-.6.2-.915 0-.4-.258-9.257-16.286-9.257-16.772 0-.143.543-.228 1.229-.228h1.2l3.428 6.428c2.143 4 3.6 6.429 3.857 6.429.258 0 1.715-2.429 3.858-6.429l3.428-6.428h1.229c.657 0 1.2.085 1.2.228 0 .114-2 3.857-4.4 8.343z" fill="#000"/></svg>