<svg width="25" height="25" fill="none" xmlns="http://www.w3.org/2000/svg"><path d="M15.586.452c-.566.283-2.19 1.7-3.606 3.117L9.403 6.145l1.082 1.082 1.108 1.082 2.628-2.602c2.087-2.035 2.86-2.653 3.607-2.782 1.597-.309 3.375.876 3.916 2.654.412 1.262-.104 2.19-2.757 4.894l-2.602 2.628 1.082 1.108 1.082 1.082 2.576-2.576c3.092-3.092 3.607-3.993 3.607-6.467 0-1.571-.103-1.983-.825-3.194C22.671.993 21.1.117 18.575.014c-1.572-.052-2.164.026-2.989.438z" fill="#465976"/><path d="M11.207 11.298l-4.38 4.38 1.108 1.081 1.082 1.108 4.38-4.38 4.38-4.379L16.667 8l-1.082-1.082-4.38 4.38z" fill="#465976"/><path d="M3.4 12.148C1.959 13.617.619 15.24.387 15.755.18 16.27 0 17.455 0 18.46c0 1.52.103 1.932.85 3.143 1.185 2.01 2.757 2.937 5.23 3.04 2.576.129 3.478-.36 6.672-3.555l2.577-2.576-1.082-1.083-1.108-1.082-2.628 2.602c-2.705 2.654-3.632 3.17-4.895 2.757-1.777-.541-2.962-2.319-2.653-3.916.128-.747.747-1.52 2.782-3.58l2.602-2.654-1.005-1.03c-.567-.568-1.082-1.031-1.159-1.031-.077 0-1.34 1.21-2.782 2.653z" fill="#465976"/></svg>