<svg width="201" height="185" fill="none" xmlns="http://www.w3.org/2000/svg"><path d="M82.335 103.365c16.487-3.291 13.601-10.695 13.601-23.447 0-12.752-8.243-48.95 29.265-34.142" stroke="#000" stroke-width="2.079"/><rect width="54.95" height="54.855" rx="13.861" transform="rotate(-15.111 426.68 -67.675) skewX(.058)" fill="#000"/><rect width="54.95" height="54.855" rx="13.861" transform="rotate(-15.111 412.024 -48.481) skewX(.058)" fill="#fff" stroke="#000" stroke-width="2.079"/><rect width="54.946" height="54.86" rx="13.861" transform="rotate(19.124 -55.815 402.227) skewX(-.071)" fill="#000"/><rect width="54.946" height="54.86" rx="13.861" transform="rotate(19.124 -41.814 392.26) skewX(-.071)" fill="#EBF3FF" stroke="#000" stroke-width="2.079"/><ellipse cx="113.886" cy="123.377" rx="3.297" ry="3.291" fill="#000"/><ellipse cx="126.251" cy="123.377" rx="3.297" ry="3.291" fill="#000"/><ellipse cx="139.44" cy="123.377" rx="3.297" ry="3.291" fill="#000"/><path d="M143.446 59.913c-.171.083-.409.464-.551.877-.142.413-.517.675-.931.639-.658-.05-.788.226-2.79 6.04-1.991 5.782-2.069 6.11-1.552 6.467.349.226.503.706.381 1.268-.256 1.156.645 1.43 1.166.33.336-.666.549-.77 1.312-.508.762.263.866.476.721 1.208-.267 1.188.612 1.526 1.133.426.249-.518.656-.77 1.176-.732 3.068.274 5.474-3.41 3.884-5.913-.524-.749-.512-.887.152-1.475 1.383-1.23 1.513-3.567.228-4.79-.431-.398-.596-.952-.463-1.546.278-1.22-.611-1.526-1.132-.426-.347.698-.561.802-1.323.54-.763-.263-.867-.476-.722-1.208.189-.859-.145-1.436-.689-1.197zm3.614 5.296c.229.47.318 1.14.197 1.49-.448 1.302-1.736 1.534-4.151.702l-2.224-.766.657-1.906.656-1.906 2.224.766c1.811.623 2.307.936 2.641 1.62zm-.957 5.463c.449.759.496 1.344.234 2.106-.263.763-.66 1.194-1.482 1.516-.949.384-1.459.315-3.651-.44l-2.51-.864.876-2.542.875-2.542 2.51.864c2.192.755 2.636 1.015 3.148 1.902z" fill="#000"/><path d="M142.977 55.507c-3.763.09-6.89 1.43-9.648 4.177-1.363 1.378-2.103 1.515-3.492 5.55-1.411 4.098-.922 4.586-.656 6.704.365 2.862 1.948 6.108 3.979 8.157 1.484 1.47 1.843 1.665 5.243 2.836 3.399 1.17 3.802 1.238 5.877.993 2.862-.365 6.108-1.948 8.157-3.979 1.514-1.504 2.2-1.588 3.611-5.686 1.411-4.099.922-4.587.656-6.704-.365-2.863-1.948-6.109-3.99-8.126-1.367-1.395-1.991-1.752-4.722-2.8-2.488-.927-3.549-1.15-5.015-1.122zm8.389 4.843c2.064 1.955 3.48 4.86 3.782 7.7.193 1.914.08 2.657-.708 4.944-.788 2.288-1.155 2.943-2.487 4.332-1.986 2.053-4.89 3.47-7.762 3.76-1.883.205-2.626.091-4.913-.697-2.288-.787-2.943-1.155-4.301-2.475-2.084-1.998-3.501-4.902-3.802-7.742-.194-1.915-.08-2.657.708-4.945.787-2.288 1.155-2.943 2.475-4.3 4.735-4.874 12.186-5.151 17.008-.577zm-98.061 53.597c-3.16 2.043-5.127 4.819-6.044 8.602-.441 1.888-1.001 2.39-.078 6.557.939 4.232 1.611 4.392 2.944 6.059 1.807 2.249 4.853 4.19 7.655 4.876 2.034.479 2.442.457 5.952-.321s3.89-.931 5.53-2.224c2.25-1.807 4.19-4.853 4.877-7.655.504-2.074 1.045-2.503.107-6.735s-1.61-4.393-2.944-6.059c-1.806-2.25-4.852-4.19-7.647-4.844-1.895-.475-2.613-.453-5.49.081-2.605.509-3.626.873-4.862 1.663zm9.684-.254c2.78.588 5.506 2.325 7.247 4.589 1.165 1.531 1.456 2.224 1.98 4.586s.553 3.113.143 4.993c-.62 2.788-2.357 5.513-4.654 7.261-1.498 1.159-2.19 1.45-4.553 1.974-2.362.523-3.113.552-4.96.136-2.821-.614-5.546-2.35-7.287-4.615-1.166-1.531-1.457-2.224-1.98-4.586-.524-2.362-.553-3.112-.137-4.96 1.49-6.629 7.7-10.759 14.2-9.378z" fill="#000"/><path d="M58.552 117.898c-.108.177-.104.668-.01 1.062.112.465-.188 1.105-.747 1.617-1.702 1.582-1.474 3.95.453 5.039.48.264 1.817.473 2.95.465 4.036-.06 4.447 2.756.51 3.701-1.61.386-1.922.348-2.256-.253-.605-1.104-1.291-.334-.956 1.062.275 1.145.364 1.2 1.642 1.006 1.171-.167 1.384-.067 1.69.73.452 1.254 1.454 1.014 1.28-.345-.092-.697.09-1.044.59-1.164.967-.232 2.372-2.575 2.14-3.542-.223-.93-1.168-2.028-2.048-2.384-.347-.182-1.542-.274-2.64-.275-1.848.027-2.87-.446-3.12-1.484-.18-.752.829-1.751 2.153-2.069 1.038-.249 1.43-.192 1.71.346.203.368.602.613.924.536.43-.103.487-.496.23-1.569-.336-1.396-.38-1.423-1.561-1.14-1.074.258-1.287.158-1.592-.64-.33-.904-.98-1.241-1.342-.699z" fill="#000"/></svg>