<svg width="107" height="87" fill="none" xmlns="http://www.w3.org/2000/svg"><path d="M49.733 66.383a21.849 21.849 0 0036.784 2.452 21.882 21.882 0 00-3.535-29.691 21.85 21.85 0 00-9.777-4.712l-4.3 21.446-19.172 10.505z" fill="#000"/><path d="M48.94 63.754a21.12 21.12 0 006.787 6.982 21.182 21.182 0 009.958 3.267 21.14 21.14 0 0010.299-1.906 21.041 21.041 0 008.101-6.609 20.964 20.964 0 002.66-20.052 21.086 21.086 0 00-6.096-8.504 21.171 21.171 0 00-8.712-4.38l-4.132 20.61-.068.343-.308.168-18.489 10.08z" fill="#fff" stroke="#000" stroke-width="1.5"/><path d="M66.233 69.65a16.476 16.476 0 008.023-1.486 16.395 16.395 0 006.313-5.15 16.337 16.337 0 002.073-15.627 16.43 16.43 0 00-4.75-6.626" stroke="#000" stroke-width="1.5"/><mask id="a" fill="#fff"><path d="M6.688 22.824a55.307 55.307 0 0153.52 0v46.064l-26.76 16.104-26.76-16.104V22.824z"/></mask><path d="M6.688 22.824a55.307 55.307 0 0153.52 0v46.064l-26.76 16.104-26.76-16.104V22.824z" fill="#fff"/><path d="M60.207 68.888l.773 1.285.727-.437v-.848h-1.5zm-53.52 0h-1.5v.848l.727.438.774-1.286zm26.76 16.104l-.773 1.285.773.466.774-.466-.774-1.285zm25.26-62.168v46.064h3V22.824h-3zM8.187 68.888V22.824h-3v46.064h3zm51.247-1.285l-26.76 16.104 1.547 2.57 26.76-16.103-1.547-2.57zM34.22 83.707L7.46 67.603l-1.547 2.57 26.76 16.104 1.547-2.57zM7.413 24.137a53.807 53.807 0 0152.068 0l1.452-2.626a56.806 56.806 0 00-54.971 0l1.451 2.626z" fill="#000" mask="url(#a)"/><mask id="b" fill="#fff"><path d="M10.031 25.708a48.225 48.225 0 0146.813 0v40.456L33.437 80.308 10.032 66.164V25.708z"/></mask><path d="M10.031 25.708a48.225 48.225 0 0146.813 0v40.456L33.437 80.308 10.032 66.164V25.708z" fill="#fff"/><path d="M56.844 66.164l.776 1.284.724-.438v-.846h-1.5zm-46.813 0h-1.5v.846l.724.438.776-1.284zm23.407 14.144l-.776 1.283.776.47.775-.47-.776-1.283zm21.906-54.6v40.456h3V25.708h-3zM11.53 66.164V25.708h-3v40.456h3zm44.537-1.284L32.662 79.025l1.551 2.567L57.62 67.448l-1.552-2.567zM34.213 79.025L10.807 64.88l-1.552 2.568 23.407 14.144 1.551-2.568zM10.76 27.019a46.725 46.725 0 0145.357 0l1.456-2.623a49.725 49.725 0 00-48.269 0l1.456 2.623z" fill="#000" mask="url(#b)"/><path d="M43.82 2.987a.334.334 0 01.635 0l.508 1.564a.334.334 0 00.318.231h1.643c.324 0 .459.415.197.605l-1.33.967a.335.335 0 00-.121.374l.508 1.564a.334.334 0 01-.515.374l-1.33-.966a.334.334 0 00-.392 0l-1.33.966a.334.334 0 01-.514-.374l.507-1.564a.335.335 0 00-.121-.374l-1.33-.967a.335.335 0 01.197-.605h1.643a.334.334 0 00.318-.231l.508-1.564zm8.024 0a.334.334 0 01.636 0l.508 1.564a.334.334 0 00.318.231h1.643c.324 0 .459.415.197.605l-1.33.967a.335.335 0 00-.121.374l.507 1.564a.334.334 0 01-.514.374l-1.33-.966a.334.334 0 00-.392 0l-1.33.966a.334.334 0 01-.514-.374l.507-1.564a.335.335 0 00-.121-.374l-1.33-.967a.335.335 0 01.197-.605h1.643a.334.334 0 00.318-.231l.508-1.564zm8.294-.067c.104-.3.528-.3.632 0l.567 1.637a.334.334 0 00.316.225h1.787c.33 0 .46.426.188.611l-1.407.96a.335.335 0 00-.128.386l.546 1.577a.334.334 0 01-.504.386l-1.492-1.017a.334.334 0 00-.377 0l-1.492 1.017a.334.334 0 01-.505-.386l.547-1.577a.335.335 0 00-.128-.386l-1.407-.96a.335.335 0 01.188-.61h1.786c.143 0 .27-.091.316-.226l.567-1.637zm8.291.067a.334.334 0 01.636 0l.508 1.564a.334.334 0 00.318.231h1.643c.324 0 .459.415.197.605l-1.33.967a.335.335 0 00-.121.374l.507 1.564a.334.334 0 01-.514.374l-1.33-.966a.334.334 0 00-.393 0l-1.329.966a.334.334 0 01-.514-.374l.507-1.564a.335.335 0 00-.121-.374l-1.33-.967a.335.335 0 01.197-.605h1.643a.334.334 0 00.318-.231l.508-1.564zm8.025 0a.334.334 0 01.636 0l.508 1.564a.335.335 0 00.318.231h1.643c.324 0 .458.415.196.605l-1.329.967a.335.335 0 00-.121.374l.507 1.564a.334.334 0 01-.514.374l-1.33-.966a.334.334 0 00-.393 0l-1.329.966a.334.334 0 01-.515-.374l.508-1.564a.335.335 0 00-.121-.374l-1.33-.967a.335.335 0 01.197-.605h1.643a.334.334 0 00.318-.231l.508-1.564zM66.875 16.73h32.1v1.339h-32.1V16.73zm0 4.016h15.381v1.339H66.875v-1.339zM28.21 39.657l-5.065 2.142-.087 7.41L23 56.591l.637.434c1.07.695 9.726 4.227 10.363 4.227.637 0 9.292-3.532 10.363-4.227l.637-.434-.058-7.382-.087-7.41-5.066-2.142c-2.779-1.158-5.384-2.113-5.789-2.113-.405 0-3.01.955-5.79 2.113zm10.248.897c2.316.955 4.226 1.795 4.226 1.882 0 .087-.723.52-1.65.984-1.447.695-1.563.84-1.187 1.216.406.405.637.347 2.23-.434l1.765-.898v11.492l-3.532 1.477c-1.968.81-4.052 1.678-4.631 1.91l-1.1.463v-3.995l2.692-1.129 2.663-1.128.087-3.532c.058-2.258-.029-3.532-.232-3.532-.144 0-1.389.55-2.75 1.216l-2.431 1.216-.087 3.503c-.087 2.865-.174 3.473-.521 3.473-.347 0-.434-.608-.521-3.502l-.087-3.503-2.316-1.071c-1.273-.579-2.518-1.042-2.75-1.042-.347 0-.405.579-.347 3.387l.087 3.387 2.692 1.129 2.663 1.128v3.995l-1.071-.463c-.608-.231-2.692-1.1-4.66-1.91l-3.532-1.477V43.622l1.824.811c1.678.753 1.881.782 2.142.347.26-.405.029-.608-1.534-1.331l-1.853-.869 4.545-1.94c2.518-1.041 4.66-1.88 4.747-1.88.116.028 2.113.839 4.429 1.794z" fill="#000"/><path d="M31.134 43.246l-2.431 1.042 2.634 1.245L34 46.748l2.46-1.186c1.361-.637 2.374-1.274 2.258-1.39-.347-.347-4.429-2.026-4.834-1.997-.173 0-1.418.492-2.75 1.07z" fill="#000"/></svg>