<svg width="356" height="168" fill="none" xmlns="http://www.w3.org/2000/svg"><path d="M344.765 22.72c-61.036-16.712-73.311 33.765-80.892 64.587-7.582 30.821-39.475-14.999-51.63-22.4-7.507-3.705-50.086 70.613-200.128 59.973" stroke="#000" stroke-width="1.5"/><ellipse cx="9.692" cy="124.693" rx="2.609" ry="2.613" stroke="#000" stroke-width="1.5"/><rect width="56.906" height="56.984" rx="10" transform="rotate(-12.28 481.158 -317.428) skewX(-.036)" fill="#F6F6F6" stroke="#000" stroke-width="1.5"/><rect width="56.914" height="56.976" rx="10" transform="rotate(22.072 8.5 506.4) skewX(.06)" fill="#EBF3FF" stroke="#000" stroke-width="1.5"/><path d="M144.166 100.653l-37.163-8.829c-2.96 22.027-14.25 43.363-20.203 52.365-.37.56-.11 1.315.53 1.519 8.739 2.779 24.958 7.898 34.014 10.631a3.894 3.894 0 004.579-1.9c11.477-21.721 16.928-44.696 18.243-53.786zm54.716-11.684l-9.625-18.134s5.864-9.837 18.705-14.996c12.507-5.024 11.703 2.767 34.606-9.587l8.005 19.964c-20.879 9.575-20.006 4.902-31.967 9.32-9.569 3.533-17.136 10.428-19.724 13.433z" fill="#fff" stroke="#000" stroke-width="1.5"/><path d="M201.71 80.366l-9.625-18.134s5.864-9.837 18.705-14.996c12.507-5.024 11.703 2.767 34.606-9.587l8.005 19.964c-20.879 9.575-20.006 4.902-31.967 9.32-9.569 3.533-17.136 10.428-19.724 13.433z" fill="#fff" stroke="#000" stroke-width="1.5"/><ellipse cx="7.647" cy="4.739" rx="7.647" ry="4.739" transform="rotate(-21.908 245.681 -522.475) skewX(-.059)" fill="#000" stroke="#000" stroke-width="1.5"/><path d="M238.231 41.308c1.199 2.99 4.894 4.32 8.252 2.968a7.33 7.33 0 001.298-.677m-51.222 13.157a5.297 5.297 0 011.671 2.211c1.181 2.945-.5 6.403-3.759 7.797m4.028 7.551a7.069 7.069 0 013.264-2.623c2.905-1.169 6.062-.332 7.637 1.85m41.746-21.554a7.37 7.37 0 00-1.406.41c-3.359 1.35-5.109 4.869-3.91 7.859.069.174.147.342.234.505" stroke="#000" stroke-width="1.5"/><path stroke="#730707" d="M106.121 99.515l36 9"/><g clip-path="url(#clip0_1321_1564)"><path d="M120.346 115.484c-.337.456-.841.954-1.201 1.103-.327.162-.863.647-1.156 1.084-.337.455-.717.744-.876.679-.159-.066-.483.358-.733.961s-.614 1.122-.78 1.165c-.474.064-1.512 3.02-1.409 4.03.08.703-.004.817-.385.659-.286-.118-.517-.549-.563-.977-.045-.428-.245-.845-.435-.924-.191-.079-.525-.441-.687-.768-.411-.803-3.13-3.492-3.399-3.381-.103.069-.244 1.127-.278 2.378-.065 1.685.199 3.022.975 4.832l1.01 2.502-1.602.006c-.894.002-1.669.165-1.747.355-.093.222.308.872.83 1.498 1.002 1.084 2.767 1.853 4.719 1.991.727.041.751.163.317 1.211-.263.635-.314 1.209-.156 1.275.191.079.528-.377.792-1.012.434-1.048.537-1.117 1.111-.618 1.447 1.268 3.238 1.973 4.714 1.915.811-.073 1.554-.25 1.646-.472.079-.19-.353-.853-.984-1.486l-1.129-1.138 2.605-1.079c1.437-.595 2.684-1.269 2.776-1.492.079-.19.784-.903 1.552-1.589.755-.655 1.293-1.325 1.192-1.441-.239-.322-3.909-.354-4.845-.072-.346.117-.837.136-1.028.057-.191-.078-.627.076-.962.346-.335.271-.803.412-1.089.293-.381-.158-.36-.298.195-.738.786-.641 2.142-3.466 1.853-3.846-.088-.148.022-.772.272-1.375.25-.604.32-1.133.162-1.198-.159-.066-.224-.539-.14-1.1.102-.516.066-1.238-.051-1.584-.149-.359-.153-1.068-.07-1.629.102-.516.006-1.002-.153-1.068-.158-.065-.57.21-.863.647zm.082 2.676c.138.206.208.756.119 1.24s-.216 1.51-.315 2.288c-.192 1.632-1.179 4.014-1.907 4.605-.277.22-.583.689-.728 1.038-.239.757-2.516 3.199-2.833 3.068-.318-.132-.201-3.469.165-4.173.145-.349.26-.897.22-1.249-.097-.933.889-3.315 1.907-4.605.48-.619 1.116-1.435 1.395-1.84.462-.665 1.162-1.007 1.574-.836.096.039.265.258.403.464zm-9.841 3.998c1.058 1.219 2.515 4.167 2.305 4.675-.105.254-.046.651.155.883.408.541.628 2.976.247 2.818-.508-.21-2.557-3.44-3.126-4.941-.563-1.424-.882-3.528-.632-4.131.144-.35.195-.291 1.051.696zm14.193 5.618c-.25.603-1.964 1.866-3.369 2.474-1.464.659-5.196 1.494-5.704 1.284-.381-.158 1.496-1.725 2.167-1.818.307-.022.629-.261.734-.515.277-.667 4.973-2.033 6.042-1.739.14.021.182.187.13.314zm-12.704 3.184c1.183.825.147.991-1.568.281-1.429-.592-2.343-1.529-1.431-1.486 1.256.111 1.632.192 1.878.406.178.111.665.461 1.121.799zm7.069 2.965c.77.654-.475.697-1.968.078-1.715-.71-2.33-1.56-.909-1.307.56.084 1.185.193 1.357.227.357.037.584.206 1.52 1.002z" fill="#000"/></g><defs><clipPath id="clip0_1321_1564"><path fill="#fff" transform="rotate(22.5 -222.559 334.45)" d="M0 0h22v22H0z"/></clipPath></defs></svg>