<svg width="2440" height="353" fill="none" xmlns="http://www.w3.org/2000/svg"><path d="M2420.11 5.356c-251.5-13.5-395.86 175.922-416 166-32.61-19.826-118.16-142.558-138.5-60-74.31 301.634-372.98 124.736-582.2 60m-1264.802 166c163.733 44.764 196.661-90.443 217-173.001s105.894 40.174 138.5 60.001C394.247 234.278 571.406 11 951.906 88.5m111.114 61.325c4.13-2.108 6.57-6.003 8.9-11.773 1.84 4.6 4.22 9.171 9.13 11.721-4.6 3.074-6.61 5.066-9.4 12.271-.18-3.281-3.71-9.668-8.63-12.219zm30.3-30.209c11.11-6.499 17.52-18.415 23.53-36.043 5.29 13.986 12.02 27.873 25.55 35.556-12.36 9.453-17.72 15.558-24.88 37.569-.68-9.996-10.68-29.399-24.2-37.082z" stroke="#000" stroke-width="1.5"/></svg>