<svg width="582" height="84" fill="none" xmlns="http://www.w3.org/2000/svg"><path d="M576.385 1.276c-59.898-3.215-94.28 41.898-99.076 39.535-7.766-4.722-28.142-33.952-32.986-14.29-17.699 71.84-88.832 29.708-138.661 14.29M4.432 80.346c38.995 10.662 46.838-21.54 51.682-41.202 4.844-19.663 25.22 9.568 32.986 14.29 4.796 2.363 46.989-50.814 137.611-32.356m7.647 46.042c2.895-1.479 4.605-4.212 6.242-8.26 1.294 3.227 2.959 6.434 6.405 8.224-3.229 2.157-4.64 3.554-6.594 8.61-.127-2.302-2.606-6.784-6.053-8.574zm21.256-21.197c7.797-4.56 12.293-12.92 16.515-25.29 3.712 9.814 8.433 19.558 17.924 24.949-8.669 6.633-12.431 10.917-17.456 26.36-.48-7.013-7.492-20.627-16.983-26.019z" stroke="#000" stroke-width="1.5"/></svg>