<svg width="18" height="13" fill="none" xmlns="http://www.w3.org/2000/svg"><path d="M5.43 1.477C4.195 2.3 3.18 3 3.166 3.035c-.007.037.338.544.772 1.125.433.58.845 1.139.911 1.242.11.169.103.19-.478.948-1.11 1.462-1.55 2.035-1.991 2.623-.243.316-.456.596-.478.618-.022.022-.433.558-.911 1.198-.478.632-.897 1.175-.933 1.197-.258.155.235.177 3.806.162l3.873-.022.118-.514c.066-.287.184-.78.257-1.103.066-.323.184-.852.265-1.176.132-.595.36-1.58.558-2.462.059-.264.176-.771.265-1.124l.154-.654-.654-.632-1.404-1.352-.75-.713.589-1.183C7.458.559 7.708.015 7.693 0 7.686-.007 6.664.654 5.43 1.477zm4.453.647L9.45 3l.294.264c.154.147.617.559 1.029.926.61.552.727.684.683.809-.03.08-.11.33-.176.551-.066.22-.206.661-.31.985-.102.316-.249.771-.322 1.007l-.133.433h2.337V4.3l-.632-.456c-.345-.257-.735-.544-.874-.647a22.23 22.23 0 00-.618-.44l-.367-.258-.022-.625-.022-.624-.434.874zm3.954 2.888c.014.074.073.39.125.706l.095.58.426.294.427.301V8.26l-.522.904c-.287.5-.625 1.08-.742 1.286l-.22.39h1.917c1.059 0 1.919-.03 1.919-.066 0-.03-.17-.72-.375-1.522a48.156 48.156 0 01-.456-1.851c-.08-.427-.11-.456-1.293-1.448-.338-.287-.75-.64-.919-.787-.33-.3-.441-.345-.382-.154z" fill="#fff"/></svg>