<svg width="36" height="25" fill="none" xmlns="http://www.w3.org/2000/svg"><path d="M11.066 3.01C8.55 4.689 6.483 6.11 6.453 6.187c-.015.075.689 1.108 1.573 2.291.883 1.184 1.722 2.322 1.857 2.532.225.344.21.39-.974 1.932-2.261 2.98-3.16 4.149-4.059 5.347-.494.644-.928 1.213-.973 1.258-.045.045-.884 1.138-1.857 2.441C1.045 23.276.191 24.384.116 24.43c-.524.314.48.36 7.759.33l7.893-.046.24-1.048c.134-.584.374-1.588.524-2.247a68.72 68.72 0 01.54-2.396c.269-1.213.733-3.22 1.137-5.018.12-.539.36-1.572.54-2.291l.314-1.333-1.333-1.288c-.749-.72-2.037-1.963-2.86-2.756l-1.528-1.453L14.54 2.47C15.2 1.138 15.709.03 15.679 0c-.015-.015-2.097 1.333-4.613 3.01zm9.077 1.319l-.884 1.782.6.54c.314.299 1.257 1.138 2.096 1.886 1.243 1.124 1.483 1.393 1.393 1.648-.06.165-.224.674-.36 1.123-.134.45-.419 1.348-.628 2.007-.21.644-.51 1.573-.66 2.052l-.269.884h4.763V8.762l-1.288-.929c-.704-.524-1.498-1.108-1.782-1.318a45.36 45.36 0 00-1.259-.898l-.748-.524-.045-1.274-.045-1.273-.884 1.783zm8.057 5.886c.03.15.15.794.255 1.438l.195 1.183.869.6.868.613v2.786l-1.063 1.842c-.584 1.019-1.273 2.202-1.513 2.622l-.45.793h3.91c2.157 0 3.91-.06 3.91-.134 0-.06-.345-1.468-.765-3.1a98.422 98.422 0 01-.928-3.775c-.165-.869-.225-.929-2.636-2.95a255.85 255.85 0 01-1.873-1.604c-.674-.614-.898-.704-.778-.314z" fill="#000"/></svg>