<svg width="93" height="89" fill="none" xmlns="http://www.w3.org/2000/svg"><rect x="8.979" y="36.235" width="71.34" height="44.486" rx="9.863" transform="rotate(-4.899 8.979 36.235)" fill="#000"/><rect x="5.143" y="33.357" width="71.34" height="44.486" rx="9.863" transform="rotate(-4.899 5.143 33.357)" fill="#fff" stroke="#000" stroke-width="1.849"/><path d="M26.528 39.998c-.872 1.057.232 2.411 1.516 1.93.724-.231.798-.141 1.59 2.347 2.334 7.401 5.767 17.098 6.28 17.698.297.393.79.8 1.057.872.298.068.512.6.595 1.468.096.997.342 1.525.938 1.986 1.718 1.328 3.793-.04 3.573-2.323l-.114-1.19 2.894-.279 2.894-.278.117 1.222c.223 2.315 2.679 3.214 3.977 1.531.404-.525.596-1.225.525-1.965-.087-.9.046-1.205.548-1.383.377-.134.574-.445.488-.664-.16-.309-1.876-.273-7.863.238-6.598.57-7.765.586-8.323.185-1.57-1.147-1.13-1.287 7.166-2.086 5.434-.523 8.09-.908 8.645-1.221.615-.352 1.25-1.516 2.36-4.479l1.563-3.98-.396-3.11-.397-3.11-1.63-.07c-.88-.045-3.304.059-5.336.19-3.128.204-3.7.324-3.66.742.037.386.888.466 4.26.433 2.337.002 4.474-.041 4.8-.04.452-.011.58.301.735 1.909.16 1.672 0 2.369-1.113 5.3-.7 1.82-1.575 3.526-1.91 3.753-.364.262-3.445.624-8.69 1.096l-8.111.684-2.045-6.066c-1.132-3.331-1.983-6.105-1.925-6.176.058-.07 2.093-.169 4.523-.208 4.665-.092 5.81-.332 5.092-1.042-.253-.268-1.593-.366-3.888-.275-1.91.054-4.144.107-4.992.059-1.462-.021-1.53-.047-1.847-1.315-.244-.853-.733-1.552-1.435-2.101-1.186-.86-1.91-.952-2.461-.282zm14.08 23.892c.056.579-.112.855-.652.972-.76.203-1.278-.462-1.037-1.329.069-.298.44-.496.863-.472.553.012.77.25.827.829zm10.29-.99c.056.578-.112.854-.653.97-.76.204-1.277-.46-1.036-1.327.068-.299.439-.497.863-.473.553.012.77.25.826.83z" fill="#000"/><path d="M42.422 38.302c-.116.14.081 3.205.431 6.838l.635 6.592-1.93-1.502c-1.823-1.415-2.562-1.668-2.745-.872-.049.167 1.2 1.345 2.752 2.624l2.82 2.324 2.325-2.82c1.278-1.55 2.28-2.945 2.2-3.1-.332-.747-1.008-.357-2.531 1.347l-1.605 1.875-.708-6.682c-.704-6.293-.976-7.435-1.644-6.624z" fill="#000"/><circle cx="71.865" cy="22.865" r="17.965" fill="#EBF3FF"/><path d="M68.857 11.2c-.118.06-.918 2.227-1.784 4.816l-1.576 4.712-1.505-.43c-1.527-.436-1.527-.436-1.822.227-.282.62-.076 1.107 2.678 6.26 1.634 3.056 3.048 5.595 3.158 5.632.089.03 2.746-1.148 5.89-2.605 5.278-2.465 5.736-2.73 5.884-3.394.163-.708.163-.708-1.297-1.27l-1.482-.57 1.562-4.816 1.54-4.823-5.53-1.925c-3.046-1.043-5.605-1.85-5.716-1.814zm8.65 9.07l-1.547 4.845 1.047.473 1.07.481-4.606 2.15c-2.532 1.17-4.673 2.126-4.783 2.089-.089-.03-1.245-2.09-2.563-4.547l-2.363-4.481 1.121.252 1.121.252 1.68-4.801 1.651-4.786 4.868 1.628 4.867 1.629-1.562 4.816z" fill="#000"/><path d="M72.531 15.89c-.118.058-.28.324-.362.567-.096.288-.473.53-.945.619-1.446.278-2.12 1.628-1.45 2.86.17.303.819.865 1.43 1.241 2.19 1.324 1.465 2.975-.968 2.161-.996-.333-1.15-.459-1.128-.894.045-.797-.582-.613-.871.25-.237.708-.207.767.545 1.092.686.304.767.43.663.96-.178.826.441 1.034.804.245.184-.406.398-.531.708-.427.598.2 2.14-.588 2.34-1.186.193-.575.054-1.482-.3-1.97-.125-.214-.737-.665-1.327-1.034-1.002-.606-1.393-1.204-1.178-1.846.155-.464 1.033-.663 1.852-.389.642.215.833.378.803.761-.015.266.118.531.317.598.266.089.428-.103.65-.767.289-.862.274-.892-.456-1.136-.664-.222-.745-.348-.64-.879.125-.597-.11-.996-.487-.827z" fill="#000"/><path d="M70.917 4.134c-2.806 0-6.756.975-9.41 2.415-2.54 1.373-6.88 5.942-7.286 7.709-.173.751-.519.992-1.16.832-1.097-.275-1.255.2-.736 2.151.494 1.852 1.17 2.068 2.98.932 1.24-.765 1.28-.942.741-1.544-.539-.601-.458-.955.345-2.343 2.485-4.284 6.51-7.062 11.507-7.963 2.577-.478 3.624-.403 6.919.42 3.294.823 4.26 1.251 6.35 2.894 3.193 2.527 5.66 6.32 6.419 9.966.575 2.76.682 2.926 1.566 2.447.839-.492.808-.78.045-3.773-1.705-6.265-6.531-11.161-12.957-13.094-1.902-.568-4.311-1.03-5.323-1.049zm16.176 22.374c-1.24.764-1.28.94-.742 1.542.54.602.458.955-.345 2.342-2.483 4.283-6.507 7.06-11.503 7.96-2.576.476-3.624.401-6.917-.422-3.294-.822-4.26-1.25-6.395-2.905-3.122-2.414-5.578-6.25-6.408-10.006-.575-2.758-.647-2.87-1.643-2.324-1.422.718-1.448 1.039-.394 5.084 1.094 4.29 3.25 7.536 6.942 10.42 2.496 1.977 3.152 2.281 7.086 3.264 3.934.983 4.65 1.022 7.736.439 6.113-1.135 10.965-4.778 13.433-10.045.676-1.466 1.3-2.29 1.667-2.199.823.206.965-.412.461-2.22-.494-1.85-1.17-2.066-2.978-.93z" fill="#000"/></svg>