<svg width="104" height="87" fill="none" xmlns="http://www.w3.org/2000/svg"><path fill-rule="evenodd" clip-rule="evenodd" d="M17.813 25.188c-9.39 0-17 7.61-17 17v16.06c0 8.644 6.452 15.782 14.804 16.859l-4.602 10.985 17.88-10.845h22.414c9.388 0 17-7.61 17-17v-16.06c0-9.388-7.612-17-17-17H17.813z" fill="#000"/><path fill-rule="evenodd" clip-rule="evenodd" d="M14.852 22.938c-7.754 0-14.04 6.286-14.04 14.04v21.98c0 7.059 5.21 12.902 11.996 13.892L8.203 83.842l17.879-10.845h25.374c7.754 0 14.04-6.286 14.04-14.04v-21.98c0-7.753-6.286-14.04-14.04-14.04H14.852z" fill="#fff"/><path d="M12.808 72.85l.692.29.373-.893-.957-.14-.108.743zM8.203 83.842l-.692-.29-.89 2.127 1.97-1.196-.388-.641zm17.879-10.845v-.75h-.21l-.18.11.39.64zm-24.52-36.02c0-7.34 5.95-13.29 13.29-13.29v-1.5c-8.168 0-14.79 6.622-14.79 14.79h1.5zm0 21.98v-21.98h-1.5v21.98h1.5zm11.354 13.15C6.494 71.17 1.562 65.64 1.562 58.957h-1.5c0 7.438 5.49 13.592 12.638 14.635l.216-1.485zM8.895 84.132L13.5 73.139l-1.384-.58-4.605 10.993 1.384.58zm16.798-11.776L7.814 83.201l.778 1.282L26.47 73.64l-.778-1.283zm25.763-.109H26.082v1.5h25.374v-1.5zm13.29-13.29c0 7.34-5.95 13.29-13.29 13.29v1.5c8.168 0 14.79-6.621 14.79-14.79h-1.5zm0-21.98v21.98h1.5v-21.98h-1.5zm-13.29-13.29c7.34 0 13.29 5.95 13.29 13.29h1.5c0-8.167-6.621-14.79-14.79-14.79v1.5zm-36.604 0h36.604v-1.5H14.852v1.5z" fill="#000"/><path fill-rule="evenodd" clip-rule="evenodd" d="M61.856 1a7.862 7.862 0 00-7.861 7.862v17.127a7.862 7.862 0 007.861 7.861h19.625l10.963 6.72-1.415-6.72h3.633a7.861 7.861 0 007.861-7.861V8.862A7.861 7.861 0 0094.662 1H61.856z" fill="#000"/><path d="M81.481 33.85l.392-.64-.18-.11h-.212v.75zm10.963 6.72l-.392.639 1.484.91-.358-1.704-.734.154zm-1.415-6.72v-.75h-.924l.19.905.734-.155zM54.745 8.862a7.112 7.112 0 017.111-7.112V.25a8.612 8.612 0 00-8.611 8.612h1.5zm0 17.127V8.862h-1.5v17.127h1.5zm7.111 7.111a7.112 7.112 0 01-7.111-7.111h-1.5a8.612 8.612 0 008.611 8.611v-1.5zm19.625 0H61.856v1.5h19.625v-1.5zm11.355 6.83l-10.963-6.72-.784 1.28 10.963 6.719.784-1.28zm-2.54-5.925l1.414 6.719 1.468-.31-1.415-6.718-1.468.309zm4.366-.905h-3.633v1.5h3.633v-1.5zm7.111-7.111a7.111 7.111 0 01-7.111 7.111v1.5a8.611 8.611 0 008.611-8.611h-1.5zm0-17.127v17.127h1.5V8.862h-1.5zM94.662 1.75a7.111 7.111 0 017.111 7.112h1.5A8.611 8.611 0 0094.662.25v1.5zm-32.806 0h32.806V.25H61.856v1.5z" fill="#000"/><path fill-rule="evenodd" clip-rule="evenodd" d="M61.856 1a7.862 7.862 0 00-7.861 7.862v15.633a7.862 7.862 0 007.861 7.862h17.387l10.962 6.72-1.414-6.72h4.378a7.861 7.861 0 007.861-7.861V8.861A7.861 7.861 0 0093.169 1H61.856z" fill="#EBF3FF"/><path d="M79.243 32.357l.391-.64-.18-.11h-.211v.75zm10.962 6.72l-.392.639 1.485.91-.359-1.704-.734.154zm-1.414-6.72v-.75h-.925l.19.904.735-.154zM54.745 8.862a7.112 7.112 0 017.111-7.112V.25a8.612 8.612 0 00-8.611 8.612h1.5zm0 15.633V8.863h-1.5v15.633h1.5zm7.111 7.112a7.112 7.112 0 01-7.111-7.111h-1.5a8.612 8.612 0 008.611 8.611v-1.5zm17.387 0H61.856v1.5h17.387v-1.5zm11.354 6.83l-10.963-6.72-.784 1.28 10.963 6.719.784-1.28zm-2.54-5.925l1.414 6.719 1.468-.31-1.414-6.718-1.468.308zm5.112-.905H88.79v1.5h4.378v-1.5zm7.111-7.111a7.111 7.111 0 01-7.111 7.111v1.5a8.611 8.611 0 008.611-8.611h-1.5zm0-15.634v15.633h1.5V8.863h-1.5zM93.169 1.75a7.111 7.111 0 017.111 7.112h1.5A8.611 8.611 0 0093.169.25v1.5zm-31.313 0H93.17V.25H61.856v1.5zM31.71 32.49c-2.537.634-5.893 2.163-8.653 4.065l-2.35 1.566.038 1.865c0 1.007.15 3.281.299 4.997.26 2.76.223 3.319-.373 4.289-1.231 2.013-.672 6.078.895 6.675.298.112 1.044 1.119 1.678 2.2.596 1.12 1.678 2.462 2.387 2.984 1.976 1.529 6.526 3.654 7.757 3.654 1.603 0 6.973-2.647 9.025-4.437.932-.858 1.976-1.53 2.349-1.53.932 0 2.685-1.006 2.983-1.752.56-1.305 1.007-3.692 1.194-5.967.149-2.126.074-2.424-.783-3.282-.523-.522-1.38-.932-1.94-.932-.82 0-.932-.112-.783-.858.112-.447.336-2.424.448-4.363l.26-3.543-2.088-1.38c-1.156-.746-2.76-1.454-3.542-1.603-1.082-.187-1.753-.597-2.611-1.716-1.044-1.305-1.38-1.454-2.76-1.417-.857 0-2.386.224-3.43.485zm5.407 2.461c.746.932 1.492 1.492 2.014 1.492.484 0 1.902.522 3.17 1.156 2.237 1.119 2.35 1.23 2.125 2.35-.111.633-.298 3.84-.41 7.122-.112 3.282-.26 6.601-.335 7.347-.15 1.268-.075 1.417.745 1.417.485 0 .895-.186.895-.373 0-.224.336-.373.746-.373s.746.15.746.373c0 .187-.336.709-.746 1.119-.671.671-1.23.746-5.967.746-3.505 0-5.482-.15-5.967-.448-.97-.634-2.05 0-2.05 1.194 0 1.193 1.006 1.752 2.125 1.193.522-.298 1.865-.447 3.282-.373l2.424.112-2.872 1.38c-1.566.783-3.244 1.417-3.729 1.417-1.119 0-5.78-2.387-7.123-3.655-.597-.559-1.417-1.678-1.827-2.498-.41-.82-1.231-1.94-1.828-2.499-1.305-1.193-1.342-2.088-.298-3.43.783-1.008.783-1.157.373-5.744l-.41-4.736 1.23-1.044c2.387-2.089 8.652-4.625 11.524-4.7.709-.037 1.305.373 2.163 1.455zm9.994 13.873c.262.261.448 1.23.448 2.163 0 1.827-.485 2.61-1.566 2.61-.597 0-.672-.335-.672-2.61s.075-2.61.672-2.61c.373 0 .857.186 1.118.447zM75.898 8.152c-1.444.367-3.506 1.604-4.515 2.681-.504.55-1.26 1.696-1.65 2.544C69.046 14.82 69 15.073 69 17.57c0 2.59.023 2.68.848 4.377 1.031 2.085 2.36 3.368 4.492 4.377 1.397.664 1.741.733 3.712.733 1.97 0 2.315-.069 3.713-.733 2.13-1.009 3.46-2.292 4.491-4.377.825-1.72.848-1.788.848-4.4 0-2.613-.023-2.682-.848-4.4-1.558-3.117-4.308-4.973-7.7-5.134-.962-.045-2.154.023-2.658.138zm5.5 1.467c1.764.802 3.323 2.36 4.148 4.124.55 1.192.641 1.696.641 3.346 0 1.65-.091 2.155-.641 3.346-.825 1.765-2.384 3.323-4.171 4.148-1.169.55-1.673.642-3.323.642s-2.154-.092-3.323-.642c-1.787-.825-3.346-2.383-4.17-4.148-.55-1.191-.642-1.696-.642-3.346 0-1.65.091-2.154.641-3.323 1.971-4.193 6.715-6.027 10.84-4.147z" fill="#000"/><path d="M76.746 12.873c-.665.32-1.444 1.49-1.444 2.131 0 .138.321.252.688.252.39 0 .687-.114.687-.23 0-.389.894-1.145 1.375-1.145.642 0 1.375.802 1.375 1.49 0 .32-.32.94-.779 1.42-1.467 1.673-1.696 2.59-.596 2.59.39 0 .688-.114.688-.23 0-.137.573-.847 1.26-1.603 1.398-1.513 1.558-2.177.894-3.552-.642-1.352-2.613-1.88-4.148-1.123zm.665 8.502c.046.504.183.641.642.641.458 0 .596-.137.641-.641.069-.55 0-.62-.641-.62-.642 0-.71.07-.642.62z" fill="#000"/></svg>