<svg width="26" height="26" fill="none" xmlns="http://www.w3.org/2000/svg"><path d="M10.96.066a12.61 12.61 0 00-6.155 2.565c-.573.447-1.55 1.408-2.025 1.996a12.753 12.753 0 00-2.634 5.817c-.137.765-.191 2.605-.103 3.443.21 1.957.893 3.875 1.952 5.503.48.736.902 1.26 1.56 1.933 2.055 2.108 4.65 3.384 7.602 3.727.657.078 2.256.064 2.967-.02 3.669-.456 6.945-2.51 8.99-5.64a12.453 12.453 0 001.923-5.272c.098-.795.098-2.34 0-3.14a12.603 12.603 0 00-5.591-8.955A12.452 12.452 0 0014.123.066c-.745-.088-2.457-.088-3.163 0zm2.566 2.28c1.363.148 2.59.51 3.737 1.114a10.306 10.306 0 015.365 7.25c1.026 5.526-2.677 10.877-8.244 11.917-.437.079-1.295.172-1.614.172h-.215v-1.452l.676-.059c1.594-.142 2.953-.613 4.233-1.476 4.007-2.698 5.062-8.151 2.354-12.173-1.5-2.232-3.855-3.595-6.606-3.83l-.657-.06v-1.45h.245c.137 0 .46.024.726.049zm.54 3.949a6.487 6.487 0 013.624 2.379c.446.588.907 1.545 1.103 2.28.152.57.157.623.157 1.594 0 .971-.005 1.025-.157 1.59a6.766 6.766 0 01-1.594 2.859c-1.054 1.108-2.673 1.878-4.14 1.962l-.504.029v-1.471l.456-.03c1.873-.122 3.61-1.481 4.232-3.31.201-.594.265-.976.265-1.629 0-.652-.064-1.035-.265-1.628-.623-1.83-2.359-3.188-4.232-3.31l-.456-.03V6.109l.505.029c.274.02.726.088 1.005.157zm-.727 3.752c.912.265 1.673 1.152 1.825 2.124.152.99-.334 2.025-1.212 2.594-.299.196-.75.353-1.162.407l-.235.03V9.895l.235.03c.128.019.373.073.55.122z" fill="#465976"/></svg>