<svg width="36" height="41" fill="none" xmlns="http://www.w3.org/2000/svg"><path d="M15.335.707c-3.026.813-6.368 2.62-7.949 4.246l-1.22 1.265.498 4.11c.497 3.884.451 4.155-.407 5.013-.677.677-.903 1.49-.903 3.387 0 2.665-.407 2.032 5.284 8.22l1.445 1.536-2.122.903c-1.175.497-3.84 1.671-5.962 2.574L.16 33.678l-.135 2.529c-.09 2.123.045 2.755.812 3.523.859.858 1.355.903 17.163.903s16.304-.045 17.163-.903c.767-.768.903-1.4.813-3.523l-.136-2.53-3.839-1.716c-2.123-.903-4.787-2.077-5.962-2.574l-2.122-.903 1.445-1.536c5.69-6.188 5.284-5.555 5.284-8.22 0-1.897-.226-2.71-.903-3.387-.768-.768-.903-1.49-.903-5.646V4.953l-1.446-.903c-.813-.497-2.168-1.04-2.98-1.175-.904-.18-1.807-.767-2.394-1.58-1.084-1.536-2.71-1.671-6.685-.588zm5.826 2.44c.542.722 1.355 1.354 1.852 1.354.497 0 1.581.316 2.44.633l1.58.677v4.968c0 4.562.09 5.013.948 5.465 1.175.632.994 2.755-.27 3.342-.497.226-1.491 1.355-2.259 2.484-1.49 2.258-5.555 4.968-7.452 4.968-1.897 0-5.962-2.71-7.452-4.968-.723-1.129-1.762-2.258-2.258-2.484-1.31-.587-1.446-2.71-.181-3.342.903-.497.948-.768.677-3.749-.18-1.806-.406-3.884-.542-4.652C8.02 6.624 8.2 6.308 9.87 5.18c2.123-1.446 7.227-3.342 9.124-3.388.813 0 1.49.407 2.168 1.355zM18 28.89c.632 0 1.897-.406 2.845-.903l1.672-.903v1.129c0 .903-.362 1.31-1.581 1.851-.858.317-2.168.633-2.936.633-.768 0-2.078-.316-2.936-.633-1.22-.541-1.58-.948-1.58-1.851v-1.13l1.67.904c.95.497 2.214.903 2.846.903zm-4.02 2.71c2.575 1.13 5.33 1.13 8.04-.045l2.213-.903 5.013 2.122c4.336 1.852 5.058 2.258 4.923 3.072-.136.948-.271.948-16.169.948s-16.033 0-16.169-.948c-.09-.768.587-1.22 4.742-3.026a234.632 234.632 0 015.15-2.123c.18 0 1.173.406 2.257.903z" fill="#000"/><path d="M21.162 3.146c.541.723 1.355 1.355 1.851 1.355.497 0 1.581.316 2.44.633l1.58.677v4.968c0 4.562.09 5.013.948 5.465 1.175.632.994 2.755-.27 3.342-.497.226-1.491 1.355-2.259 2.484-1.49 2.258-5.555 4.968-7.452 4.968-1.897 0-5.962-2.71-7.452-4.968-.723-1.129-1.762-2.258-2.258-2.484-1.31-.587-1.446-2.71-.181-3.342.903-.497.948-.768.677-3.749-.18-1.806-.406-3.884-.542-4.652C8.02 6.624 8.2 6.308 9.87 5.18c2.123-1.446 7.227-3.342 9.124-3.388.813 0 1.49.407 2.168 1.355zM18 28.89c.632 0 1.897-.406 2.845-.903l1.672-.903v1.129c0 .903-.362 1.31-1.581 1.851-.858.317-2.168.633-2.936.633-.768 0-2.078-.316-2.936-.633-1.22-.541-1.58-.948-1.58-1.851v-1.13l1.67.904c.95.497 2.214.903 2.846.903z" fill="#fff"/><path d="M13.98 31.6c2.575 1.13 5.33 1.13 8.04-.045l2.213-.903 5.013 2.122c4.336 1.852 5.058 2.258 4.923 3.072-.136.948-.271.948-16.169.948s-16.033 0-16.169-.948c-.09-.768.587-1.22 4.742-3.026a234.632 234.632 0 015.15-2.123c.18 0 1.173.406 2.257.903z" fill="#fff"/></svg>