<svg width="261" height="324" fill="none" xmlns="http://www.w3.org/2000/svg"><path d="M95.84 129.687l-59.742 23.466 15.834 42.988 61.548-22.79-17.64-43.664z" fill="#F6F6F6" stroke="#000" stroke-width="1.5"/><path d="M53.73 188.576l5.517-17.497 16.822 7.322 7.765-29.011 8.694 4.282 11.787-84.084m0 0l5.198 8.122m-5.198-8.122l-8.122 5.198m28.15-7.534l6.875-12.872m-48.51 25.093L69.835 72.6" stroke="#000" stroke-width="1.5"/><path d="M121.267 78.59l77.27-29.397 5.004 13.455M88.698 90.979L8.873 121.347l5.067 13.426m0 0l41.981 111.249 189.326-71.251-41.706-112.123M13.94 134.773l72.418-27.548M203.54 62.648l-89.085 33.889m41.006-71.18c3.833-4.744 4.675-11.121 4.386-19.98 4.687 5.357 9.996 10.431 17.276 11.61-3.888 6.268-5.24 9.88-4.723 20.884-1.979-4.344-9.659-11.335-16.939-12.515zm-39.079 281.889c3.834-4.743 4.675-11.121 4.386-19.98 4.688 5.357 9.997 10.432 17.277 11.611-3.889 6.267-5.24 9.88-4.724 20.883-1.978-4.343-9.658-11.335-16.939-12.514zm-3.9-182.143l45.47-16.965m-40.775 30.561l46.091-17.247m-40.211 31.801l45.469-16.964m-40.774 30.561l46.09-17.247" stroke="#000" stroke-width="1.5"/><path d="M64.257 226.49l-5.88-14.554 121.007-46.876 5.542 15.458L64.257 226.49z" stroke="#000" stroke-width="1.5"/><circle cx="258.17" cy="129.217" r="1.364" transform="rotate(-24.489 258.17 129.217)" stroke="#000" stroke-width="1.5"/><circle cx="128.258" cy="237.049" r="2.727" transform="rotate(-24.489 128.258 237.049)" stroke="#000" stroke-width="1.5"/><circle cx="207.5" cy="108.5" r="32.5" fill="#EBF3FF" stroke="#000" stroke-width="2"/><path d="M196.073 99.772c-2.139 2.709-3.881 4.982-3.887 5.074.01.086 1.138.96 2.515 1.933 1.376.972 2.688 1.912 2.909 2.092.365.295.364.349-.376 2.441-1.403 4.032-1.967 5.617-2.52 7.235-.309.873-.58 1.644-.613 1.709-.033.064-.557 1.547-1.155 3.305-.602 1.741-1.138 3.245-1.203 3.321-.458.526.647.221 8.537-2.379l8.552-2.833-.11-1.222c-.059-.682-.153-1.855-.223-2.624a79.432 79.432 0 01-.26-2.791c-.135-1.412-.339-3.754-.534-5.848-.06-.627-.164-1.833-.223-2.677l-.129-1.558-1.901-.928c-1.066-.516-2.903-1.411-4.077-1.982l-2.171-1.038.451-3.04c.245-1.68.407-3.062.364-3.084-.022-.011-1.806 2.186-3.946 4.894zm10.318-1.769l-.331 2.246.841.374c.447.214 1.767.792 2.941 1.309 1.746.781 2.101.989 2.093 1.297-.007.2-.006.811.006 1.346s.02 1.611.025 2.4c0 .773.002 1.887.009 2.46l.019 1.054 2.584-.84 2.585-.84-1.32-4.064-1.321-4.064-1.725-.554c-.949-.32-2.017-.675-2.4-.802a52.09 52.09 0 00-1.682-.532l-.998-.305-.498-1.365-.498-1.367-.33 2.247zm10.821 3.547c.086.152.443.808.784 1.47l.628 1.216 1.155.344 1.159.36.491 1.512.492 1.512-.505 2.375c-.275 1.311-.605 2.838-.718 3.378l-.207 1.02 4.243-1.378c2.341-.761 4.222-1.444 4.195-1.525-.021-.065-.891-1.472-1.922-3.096a112.778 112.778 0 01-2.339-3.77c-.485-.884-.572-.928-3.902-2.273-.954-.391-2.118-.875-2.597-1.079-.949-.429-1.224-.447-.957-.066z" fill="#000"/></svg>